<svg width="101" height="101" fill="none" xmlns="http://www.w3.org/2000/svg"><g clip-path="url(#a)"><path d="M19.285 1.163C22.71.623 26.191.62 29.65.697l-.297.275c-4.527 2.965-8.28 7.035-10.993 11.707-5.437 9.353-7.42 20.413-6.97 31.133.446 8.73 2.541 17.507 6.983 25.095.744 1.357 1.982 2.557 2.002 4.206.139 3.537-1.61 6.87-3.977 9.398l.462.485c2.215 2.418 4.578 4.69 6.829 7.077 3.197 3.614 6.84 6.815 9.973 10.494-5.211.078-10.484.32-15.634-.653-6.483-1.258-12.237-5.751-14.985-11.758C1.378 84.683.88 80.8.75 76.996a143161 143161 0 0 1 0-52.698c.072-5.871 1.627-12.014 5.758-16.369 3.272-3.688 7.905-6.087 12.777-6.766ZM66.751 33.421h4.164c-.023 8.125-.023 16.253 0 24.377-1.358-.19-3.618.679-4.128-1.128-.084-7.747-.007-15.5-.036-23.249Z" fill="#0068FF"/><path d="M24.322 33.71c6.453-.007 12.9-.05 19.35-.004-.046 1.264-.117 2.641-.964 3.663-4.41 5.49-8.726 11.05-13.132 16.54 4.684.029 9.369.01 14.053.01-.087 1.095.298 2.373-.413 3.323-.447.614-1.255.56-1.924.566-5.861-.033-11.723.029-17.581-.033.016-1.238.029-2.609.896-3.595 4.358-5.467 8.767-10.895 13.106-16.375-4.458.007-8.92-.029-13.378.02-.03-1.371-.02-2.745-.013-4.116ZM81.238 39.089c4.642-1.038 9.68 2.01 10.95 6.582 1.594 4.756-1.316 10.41-6.124 11.859-4.083 1.438-8.971-.44-11.089-4.203-1.661-2.78-1.762-6.42-.252-9.282 1.28-2.525 3.754-4.371 6.515-4.956Zm-.078 4.119c-2.832.999-4.358 4.445-3.252 7.229.915 2.631 3.996 4.241 6.672 3.433 3.056-.73 4.902-4.31 3.819-7.242-.906-2.903-4.413-4.578-7.239-3.42ZM46.845 42.474c2.234-2.768 6.146-4.132 9.593-3.146 1.138.288 2.169.857 3.165 1.461-.01-.303-.033-.908-.042-1.212 1.303-.006 2.602-.003 3.905-.01-.006 6.078-.013 12.156.003 18.238-.957-.026-1.93.087-2.87-.107-.66-.269-.864-.99-1.126-1.578-3.595 2.794-9.243 2.16-12.23-1.241-3.184-3.295-3.35-8.907-.398-12.405Zm5.264.815c-2.994 1.053-4.446 4.91-2.93 7.69 1.294 2.71 4.934 3.848 7.537 2.354 2.415-1.267 3.53-4.413 2.492-6.928-1.005-2.735-4.397-4.267-7.1-3.117Z" fill="#0068FF"/><path d="M29.354.972c.724-.207 1.48-.272 2.23-.294C44.515.726 57.443.67 70.372.694c3.456.042 6.931-.19 10.362.336 4.749.362 9.32 2.373 12.854 5.551 4.436 4.239 6.802 10.342 6.876 16.43.004 17.138-.006 34.29.01 51.42-.045.1-.132.308-.178.411-4.607 5.154-10.801 8.642-17.277 10.899-8.725 2.974-18.072 3.93-27.244 3.233-9.172-.79-18.415-3.185-26.194-8.254-3.976 1.768-8.363 2.635-12.718 2.276l-.462-.485c2.366-2.528 4.115-5.862 3.976-9.398-.02-1.65-1.258-2.849-2.001-4.207-4.442-7.587-6.537-16.365-6.983-25.094-.45-10.72 1.532-21.78 6.97-31.133C21.074 8.006 24.828 3.936 29.354.971Zm37.4 32.45c.028 7.749-.05 15.501.035 23.248.51 1.807 2.77.937 4.128 1.128-.022-8.125-.022-16.252 0-24.377h-4.164Zm-42.43.287c-.007 1.37-.017 2.745.012 4.116 4.459-.049 8.92-.013 13.379-.02-4.34 5.48-8.749 10.908-13.107 16.375-.866.986-.88 2.357-.896 3.595 5.859.062 11.72 0 17.581.033.67-.007 1.478.048 1.924-.566.711-.95.327-2.228.414-3.324-4.685 0-9.37.02-14.054-.01 4.407-5.489 8.723-11.05 13.132-16.54.847-1.02.919-2.398.964-3.662-6.45-.045-12.897-.003-19.35.003Zm56.916 5.38c-2.76.585-5.234 2.43-6.514 4.956-1.51 2.861-1.41 6.501.252 9.282 2.118 3.763 7.006 5.641 11.089 4.203 4.807-1.449 7.717-7.103 6.123-11.859-1.27-4.571-6.307-7.62-10.95-6.582Zm-34.392 3.385c-2.952 3.498-2.787 9.11.397 12.405 2.988 3.4 8.636 4.034 12.23 1.241.263.588.466 1.31 1.126 1.578.94.194 1.914.08 2.87.106-.015-6.08-.009-12.159-.002-18.237-1.303.007-2.603.003-3.906.01l.042 1.212c-.996-.604-2.027-1.173-3.165-1.461-3.446-.986-7.358.378-9.592 3.146Z" fill="#fff"/><path d="M52.11 43.288c2.703-1.15 6.095.382 7.1 3.117 1.038 2.515-.077 5.66-2.492 6.928-2.603 1.494-6.243.356-7.537-2.353-1.516-2.78-.064-6.638 2.93-7.692ZM81.161 43.208c2.826-1.158 6.334.517 7.239 3.42 1.083 2.932-.763 6.511-3.819 7.242-2.676.808-5.757-.802-6.672-3.433-1.106-2.784.42-6.23 3.252-7.23Z" fill="#fff"/><path d="m100.293 74.842.255-.278c.133 5.053-.413 10.326-2.893 14.823-2.884 5.277-8.115 9.195-13.999 10.45-3.3.682-6.686.833-10.048.791-10.342.004-20.685 0-31.027.004-2.974-.049-5.955.09-8.92-.065-3.133-3.68-6.776-6.88-9.974-10.494-2.25-2.386-4.613-4.659-6.828-7.077 4.355.359 8.742-.508 12.719-2.276 7.778 5.07 17.022 7.465 26.194 8.254 9.172.698 18.518-.26 27.244-3.233 6.475-2.257 12.67-5.745 17.277-10.899Z" fill="#005BE0"/></g><defs><clipPath id="a"><path fill="#fff" transform="translate(.656 .656)" d="M0 0h100v100H0z"/></clipPath></defs></svg>